<svg width="15" height="15" viewBox="0 0 15 15" fill="none" xmlns="http://www.w3.org/2000/svg">
<g clip-path="url(#clip0_228_144)">
<path d="M3.77576 11.4459C2.80853 11.4459 1.94817 10.8266 1.63575 9.90463L1.61462 9.83515C1.54095 9.591 1.51008 9.38567 1.51008 9.18023V5.06085L0.0443569 9.95353C-0.144155 10.6732 0.285417 11.4193 1.00617 11.6181L10.3487 14.12C10.4653 14.1502 10.5819 14.1647 10.6967 14.1647C11.2984 14.1647 11.8482 13.7654 12.0024 13.1768L12.5466 11.4459H3.77576Z" fill="white"/>
<path d="M5.4374 5.10204C6.10383 5.10204 6.64569 4.56007 6.64569 3.89364C6.64569 3.22721 6.10383 2.68524 5.4374 2.68524C4.77098 2.68524 4.229 3.22721 4.229 3.89364C4.229 4.56007 4.77098 5.10204 5.4374 5.10204Z" fill="white"/>
<path d="M12.9894 0.872681H3.92668C3.09419 0.872681 2.41626 1.55061 2.41626 2.38321V9.02913C2.41626 9.86172 3.09419 10.5397 3.92668 10.5397H12.9894C13.822 10.5397 14.4999 9.86172 14.4999 9.02913V2.38321C14.4999 1.55061 13.822 0.872681 12.9894 0.872681ZM3.92668 2.08108H12.9894C13.1562 2.08108 13.2915 2.21638 13.2915 2.38321V6.67229L11.383 4.44522C11.1805 4.20781 10.8875 4.08092 10.5727 4.07373C10.2597 4.0755 9.96613 4.21445 9.76556 4.45496L7.52156 7.14833L6.79053 6.41906C6.37733 6.00586 5.70482 6.00586 5.29217 6.41906L3.62466 8.08602V2.38321C3.62466 2.21638 3.75996 2.08108 3.92668 2.08108Z" fill="white"/>
</g>
<defs>
<clipPath id="clip0_228_144">
<rect width="14.5" height="14.5" fill="white" transform="translate(0 0.25)"/>
</clipPath>
</defs>
</svg>
