<svg width="14" height="14" viewBox="0 0 14 14" fill="none" xmlns="http://www.w3.org/2000/svg">
<g clip-path="url(#clip0_236_67)">
<path d="M12.2965 4.27288C12.3967 4.04098 12.4525 3.78535 12.4525 3.51664C12.4525 2.46276 11.5982 1.60844 10.5443 1.60844C10.1629 1.60844 9.80791 1.72079 9.50979 1.91358C8.76408 0.762067 7.4682 0 5.99422 0C3.68266 0 1.80875 1.87389 1.80875 4.18545C1.80875 4.19882 1.80913 4.21208 1.80924 4.22542C0.746008 4.6754 0 5.72836 0 6.95556C0 8.5921 1.32668 9.91878 2.96322 9.91878H11.0368C12.6733 9.91878 14 8.5921 14 6.95556C14 5.76948 13.3031 4.74636 12.2965 4.27288Z" fill="#D8ECFE"/>
<path d="M2.96327 3.99219C2.26821 3.99219 1.62915 4.23129 1.12378 4.63207C1.48037 4.47999 1.87319 4.39572 2.2855 4.39572C3.29921 4.39572 4.1942 4.90471 4.72831 5.68116C4.83172 5.83151 5.02347 5.89149 5.19352 5.82534C5.196 5.82438 5.19844 5.82342 5.20091 5.82248C5.43701 5.73115 5.52255 5.44014 5.37536 5.23418C4.83795 4.4823 3.95774 3.99219 2.96327 3.99219Z" fill="url(#paint0_linear_236_67)"/>
<path d="M12.2965 4.27288C12.3967 4.04097 12.4526 3.78535 12.4526 3.51663C12.4526 2.46276 11.5982 1.60843 10.5444 1.60843C10.3533 1.60843 10.1689 1.63665 9.99489 1.68903C10.781 1.92491 11.354 2.65371 11.354 3.51666C11.354 3.78537 11.2982 4.04097 11.1979 4.2729C12.2045 4.74641 12.9015 5.76953 12.9015 6.95561C12.9015 8.59215 11.5748 9.91883 9.93823 9.91883H11.0368C12.6734 9.91883 14 8.59215 14 6.95561C14 5.76948 13.3031 4.74635 12.2965 4.27288Z" fill="url(#paint1_linear_236_67)"/>
<path d="M5.99424 0C5.80812 0 5.62475 0.0120784 5.44495 0.0356863C6.77492 0.210082 7.90815 1.00858 8.54103 2.12756C8.66882 2.35351 8.97783 2.39628 9.15594 2.20744C9.26129 2.09575 9.38002 1.99676 9.50959 1.91306C8.76404 0.761765 7.46808 0 5.99424 0V0Z" fill="url(#paint2_linear_236_67)"/>
<path d="M0.68202 12.0667C1.05869 12.0667 1.36404 11.7613 1.36404 11.3847C1.36404 11.008 1.05869 10.7026 0.68202 10.7026C0.305351 10.7026 0 11.008 0 11.3847C0 11.7613 0.305351 12.0667 0.68202 12.0667Z" fill="#579EDC"/>
<path d="M3.50001 12.0667C3.87668 12.0667 4.18203 11.7613 4.18203 11.3847C4.18203 11.008 3.87668 10.7026 3.50001 10.7026C3.12334 10.7026 2.81799 11.008 2.81799 11.3847C2.81799 11.7613 3.12334 12.0667 3.50001 12.0667Z" fill="#579EDC"/>
<path d="M6.31801 12.0667C6.69468 12.0667 7.00003 11.7613 7.00003 11.3847C7.00003 11.008 6.69468 10.7026 6.31801 10.7026C5.94134 10.7026 5.63599 11.008 5.63599 11.3847C5.63599 11.7613 5.94134 12.0667 6.31801 12.0667Z" fill="#579EDC"/>
<path d="M9.13588 12.0667C9.51255 12.0667 9.8179 11.7613 9.8179 11.3847C9.8179 11.008 9.51255 10.7026 9.13588 10.7026C8.75921 10.7026 8.45386 11.008 8.45386 11.3847C8.45386 11.7613 8.75921 12.0667 9.13588 12.0667Z" fill="#579EDC"/>
<path d="M11.954 12.0667C12.3307 12.0667 12.636 11.7613 12.636 11.3847C12.636 11.008 12.3307 10.7026 11.954 10.7026C11.5773 10.7026 11.272 11.008 11.272 11.3847C11.272 11.7613 11.5773 12.0667 11.954 12.0667Z" fill="#579EDC"/>
<path d="M2.04603 14C2.4227 14 2.72805 13.6946 2.72805 13.318C2.72805 12.9413 2.4227 12.636 2.04603 12.636C1.66936 12.636 1.36401 12.9413 1.36401 13.318C1.36401 13.6946 1.66936 14 2.04603 14Z" fill="#579EDC"/>
<path d="M4.86403 14C5.2407 14 5.54605 13.6946 5.54605 13.318C5.54605 12.9413 5.2407 12.636 4.86403 12.636C4.48736 12.636 4.18201 12.9413 4.18201 13.318C4.18201 13.6946 4.48736 14 4.86403 14Z" fill="#579EDC"/>
<path d="M7.68202 14C8.05869 14 8.36404 13.6946 8.36404 13.318C8.36404 12.9413 8.05869 12.636 7.68202 12.636C7.30535 12.636 7 12.9413 7 13.318C7 13.6946 7.30535 14 7.68202 14Z" fill="#579EDC"/>
<path d="M10.5 14C10.8767 14 11.182 13.6946 11.182 13.318C11.182 12.9413 10.8767 12.636 10.5 12.636C10.1233 12.636 9.81799 12.9413 9.81799 13.318C9.81799 13.6946 10.1233 14 10.5 14Z" fill="#579EDC"/>
<path d="M13.318 14C13.6947 14 14 13.6946 14 13.318C14 12.9413 13.6947 12.636 13.318 12.636C12.9413 12.636 12.636 12.9413 12.636 13.318C12.636 13.6946 12.9413 14 13.318 14Z" fill="#579EDC"/>
</g>
<defs>
<linearGradient id="paint0_linear_236_67" x1="-0.219672" y1="4.92212" x2="13.9537" y2="4.92212" gradientUnits="userSpaceOnUse">
<stop stop-color="#D8ECFE"/>
<stop offset="0.5667" stop-color="#B3DAFE"/>
<stop offset="0.9955" stop-color="#8AC9FE"/>
</linearGradient>
<linearGradient id="paint1_linear_236_67" x1="-0.219564" y1="5.7636" x2="13.9538" y2="5.7636" gradientUnits="userSpaceOnUse">
<stop stop-color="#D8ECFE"/>
<stop offset="0.5667" stop-color="#B3DAFE"/>
<stop offset="0.9955" stop-color="#8AC9FE"/>
</linearGradient>
<linearGradient id="paint2_linear_236_67" x1="-0.219564" y1="1.16321" x2="13.9538" y2="1.16321" gradientUnits="userSpaceOnUse">
<stop stop-color="#D8ECFE"/>
<stop offset="0.5667" stop-color="#B3DAFE"/>
<stop offset="0.9955" stop-color="#8AC9FE"/>
</linearGradient>
<clipPath id="clip0_236_67">
<rect width="14" height="14" fill="white"/>
</clipPath>
</defs>
</svg>
