<svg width="18" height="16" viewBox="0 0 18 16" fill="none" xmlns="http://www.w3.org/2000/svg">
<path d="M11.6068 10.2144C13.1386 10.2144 14.3804 8.97264 14.3804 7.4408C14.3804 5.90895 13.1386 4.66714 11.6068 4.66714C10.0749 4.66714 8.83313 5.90895 8.83313 7.4408C8.83313 8.97264 10.0749 10.2144 11.6068 10.2144Z" fill="#FFDC64"/>
<path d="M11.2682 3.5681C11.0071 3.59095 10.777 3.39783 10.7542 3.13683L10.6095 1.48347C10.5867 1.22244 10.7798 0.992339 11.0408 0.969487C11.3018 0.946636 11.5319 1.13975 11.5547 1.40075L11.6994 3.05411C11.7223 3.31515 11.5292 3.54528 11.2682 3.5681Z" fill="#FFD15B"/>
<path d="M11.2682 3.5681C11.0071 3.59095 10.777 3.39783 10.7542 3.13683L10.6095 1.48347C10.5867 1.22244 10.7798 0.992339 11.0408 0.969487C11.3018 0.946636 11.5319 1.13975 11.5547 1.40075L11.6994 3.05411C11.7223 3.31515 11.5292 3.54528 11.2682 3.5681Z" fill="#FFD15B"/>
<path d="M15.3995 7.03485C15.3767 6.77381 15.5698 6.54371 15.8308 6.52086L17.4842 6.3762C17.7452 6.35334 17.9753 6.54646 17.9981 6.80746C18.021 7.06849 17.8279 7.29859 17.5669 7.32144L15.9135 7.46611C15.6525 7.48896 15.4224 7.29588 15.3995 7.03485Z" fill="#FFD15B"/>
<path d="M14.5219 9.81862C14.6903 9.61791 14.9896 9.59172 15.1903 9.76015L16.4617 10.827C16.6624 10.9954 16.6886 11.2947 16.5201 11.4954C16.3517 11.6961 16.0525 11.7223 15.8518 11.5538L14.5804 10.487C14.3797 10.3186 14.3535 10.0194 14.5219 9.81862Z" fill="#FFD15B"/>
<path d="M14.5219 9.81862C14.6903 9.61791 14.9896 9.59172 15.1903 9.76015L16.4617 10.827C16.6624 10.9954 16.6886 11.2947 16.5201 11.4954C16.3517 11.6961 16.0525 11.7223 15.8518 11.5538L14.5804 10.487C14.3797 10.3186 14.3535 10.0194 14.5219 9.81862Z" fill="#FFD15B"/>
<path d="M6.68071 3.23915C6.84915 3.03844 7.1484 3.01225 7.3491 3.18068L8.62049 4.2475C8.8212 4.41593 8.84739 4.71518 8.67896 4.91589C8.51053 5.1166 8.21128 5.14279 8.01057 4.97436L6.73918 3.90754C6.53847 3.7391 6.51228 3.43986 6.68071 3.23915Z" fill="#FFD15B"/>
<path d="M15.7285 2.44756C15.9292 2.61599 15.9554 2.91524 15.787 3.11595L14.7202 4.38734C14.5518 4.58805 14.2525 4.61424 14.0518 4.44581C13.8511 4.27737 13.8249 3.97812 13.9933 3.77742L15.0602 2.50602C15.2286 2.30532 15.5278 2.27913 15.7285 2.44756Z" fill="#FFD15B"/>
<path d="M12.6545 10.7909C12.7753 9.09908 11.2176 7.79496 9.5824 8.19191C9.25088 6.69823 7.91852 5.58121 6.32503 5.58121C4.43654 5.58121 2.91375 7.15048 2.99127 9.05602C1.35928 9.05029 0 10.3777 0 12.0442C0 13.6557 1.27571 14.969 2.87234 15.0299V15.0324H12.4718C13.6453 15.0324 14.5967 14.081 14.5967 12.9075C14.5967 11.7955 13.7424 10.8836 12.6545 10.7909Z" fill="#D8ECFE"/>
<path d="M12.6546 10.7909C12.7754 9.09908 11.2177 7.79496 9.58248 8.19191C9.25096 6.69823 7.91861 5.58121 6.32512 5.58121C5.91765 5.58121 5.52728 5.6544 5.16626 5.78814C6.72716 5.82178 8.02408 6.92653 8.3505 8.39726C9.98572 8.00031 11.5434 9.30443 11.4226 10.9963C12.5105 11.089 13.3648 12.0008 13.3648 13.1128C13.3648 13.9599 12.869 14.6911 12.1518 15.0324H12.4718C13.6454 15.0324 14.5967 14.081 14.5967 12.9075C14.5967 11.7955 13.7425 10.8836 12.6546 10.7909Z" fill="#97CFFE"/>
</svg>
